<svg width="19" height="17" viewBox="0 0 19 17" fill="none" xmlns="http://www.w3.org/2000/svg">
<path d="M10.6065 1.66371C10.46 1.41114 10.2497 1.2015 9.99673 1.05577C9.74372 0.910035 9.45686 0.833328 9.16488 0.833328C8.87289 0.833328 8.58603 0.910035 8.33302 1.05577C8.08001 1.2015 7.86972 1.41114 7.72321 1.66371L1.05654 13.3304C0.910335 13.5836 0.833327 13.8709 0.833252 14.1633C0.833177 14.4557 0.910037 14.743 1.05612 14.9963C1.20219 15.2496 1.41235 15.46 1.66548 15.6064C1.9186 15.7528 2.20579 15.8301 2.49821 15.8304H15.8315C16.124 15.8301 16.4111 15.7528 16.6643 15.6064C16.9174 15.46 17.1276 15.2496 17.2736 14.9963C17.4197 14.743 17.4966 14.4557 17.4965 14.1633C17.4964 13.8709 17.4194 13.5836 17.2732 13.3304L10.6065 1.66371Z" stroke="#1D61E7" stroke-width="1.66667" stroke-linecap="round" stroke-linejoin="round"/>
</svg>
